<?xml version="1.0" encoding="utf-8"?>
<!-- Generator: Adobe Illustrator 26.3.1, SVG Export Plug-In . SVG Version: 6.00 Build 0)  -->
<svg version="1.1" id="Livello_1" xmlns="http://www.w3.org/2000/svg" xmlns:xlink="http://www.w3.org/1999/xlink" x="0px" y="0px"
	 viewBox="0 0 16 16" style="enable-background:new 0 0 16 16;" xml:space="preserve">
<style type="text/css">
	.st0{fill:#7FC241;}
</style>
<g>
	<path class="st0" d="M15.5,2.8h-15H0v12.7V16h0.5H16v-0.5V2.8H15.5z M10.3,7.6c0-0.3,0.2-0.5,0.5-0.5c0.1,0,0.3,0,0.4,0
		c0.1,0,0.3,0,0.4,0c0.3,0,0.5,0.2,0.5,0.5v4c0,0.4-0.2,0.6-0.5,0.6l-0.1,0c-0.2,0-0.5,0-0.7,0c-0.3,0-0.5-0.2-0.5-0.5
		C10.3,10.3,10.3,9,10.3,7.6z M7.1,6.1c0-0.3,0.2-0.5,0.5-0.5c0.1,0,0.2,0,0.3,0c0.1,0,0.2,0,0.2,0l0.2,0C8.8,5.5,9,5.7,9,6.1v5.5
		c0,0.4-0.2,0.6-0.6,0.6l-0.2,0c-0.2,0-0.4,0-0.6,0c-0.3,0-0.5-0.2-0.5-0.5C7.1,9.8,7.1,7.9,7.1,6.1z M4,9.2c0-0.3,0.2-0.5,0.5-0.5
		c0.1,0,0.3,0,0.4,0c0.1,0,0.3,0,0.4,0c0.3,0,0.5,0.2,0.5,0.5c0,0.3,0,0.6,0,0.8l0,0.4l0,0.4l0,0.8c0,0.3-0.2,0.5-0.5,0.5
		c-0.3,0-0.5,0-0.8,0C4.2,12.2,4,12,4,11.6C4,10.8,4,10,4,9.2z M12.8,13.3c0,0-0.1,0-0.1,0c-1.6,0-3.1,0-4.7,0c-1.5,0-3.1,0-4.6,0
		c0,0-0.1,0-0.1,0c-0.1,0-0.3-0.1-0.3-0.3c0-0.1,0.1-0.2,0.2-0.3c0,0,0.1,0,0.1,0c3.1,0,6.2,0,9.3,0c0.1,0,0.2,0,0.3,0.2
		C13.1,13,13,13.2,12.8,13.3z"/>
</g>
<polygon id="XMLID_1_" class="st0" points="13.7,0 2.4,0 0,1.9 0.2,1.9 16,1.9 "/>
</svg>
