<?xml version="1.0" encoding="utf-8"?>
<!DOCTYPE svg PUBLIC "-//W3C//DTD SVG 1.1//EN" "http://www.w3.org/Graphics/SVG/1.1/DTD/svg11.dtd">
<svg xmlns="http://www.w3.org/2000/svg"><symbol id="default" viewBox="0 0 32 32">
<title>default</title>
<path class="path1" d="M28.4 1c1.5 0 2.6 1.1 2.6 2.6v24.8c0 1.5-1.1 2.6-2.6 2.6h-24.8c-1.5 0-2.6-1.1-2.6-2.6v-13.2c0-0.1 0.2-14.2 19.4-14.2h8zM28.4 0h-8c-18.7 0-20.4 13.2-20.4 15.2v13.2c0 2 1.6 3.6 3.6 3.6h24.8c2 0 3.6-1.6 3.6-3.6v-24.8c0-2-1.6-3.6-3.6-3.6v0z"></path>
<path class="path2" d="M15 9.7v4.4h-5.2v-4.4h5.2zM15.5 8.7h-6.2c-0.3 0-0.5 0.3-0.5 0.6v5.3c0 0.3 0.2 0.5 0.5 0.5h6.2c0.3 0 0.5-0.2 0.5-0.5v-5.3c0-0.3-0.3-0.6-0.5-0.6v0z"></path>
<path class="path3" d="M24.3 9.7v6.3h-5.2v-6.3h5.2zM24.8 8.7h-6.2c-0.3 0-0.5 0.2-0.5 0.5v7.3c0 0.3 0.2 0.5 0.5 0.5h6.2c0.3 0 0.5-0.2 0.5-0.5v-7.3c0-0.3-0.2-0.5-0.5-0.5v0z"></path>
<path class="path4" d="M24.3 19.9v4.3h-5.2v-4.3h5.2zM24.8 18.9h-6.2c-0.3 0-0.5 0.2-0.5 0.5v5.3c0 0.3 0.2 0.5 0.5 0.5h6.2c0.3 0 0.5-0.2 0.5-0.5v-5.3c0-0.3-0.2-0.5-0.5-0.5v0z"></path>
<path class="path5" d="M15 18v6.3h-5.2v-6.3h5.2zM15.5 17h-6.2c-0.3 0-0.5 0.2-0.5 0.6v7.2c0 0.3 0.2 0.5 0.5 0.5h6.2c0.3 0 0.5-0.2 0.5-0.5v-7.3c0-0.3-0.2-0.5-0.5-0.5v0z"></path>
</symbol></svg>