<?xml version="1.0" encoding="utf-8"?>
<!-- Generator: Adobe Illustrator 24.1.1, SVG Export Plug-In . SVG Version: 6.00 Build 0)  -->
<svg version="1.1" id="Livello_3" xmlns="http://www.w3.org/2000/svg" xmlns:xlink="http://www.w3.org/1999/xlink" x="0px" y="0px"
	 viewBox="0 0 28 28" style="enable-background:new 0 0 28 28;" xml:space="preserve">
<style type="text/css">
	.st0{fill:#3A83C5;}
</style>
<g id="XMLID_41_">
	<path class="st0" d="M12.4,10.7H6.2c-0.2,0-0.3,0.1-0.3,0.3v7.5c0,0.2,0.1,0.3,0.3,0.3h6.2c0.2,0,0.3-0.2,0.3-0.3V11
		C12.7,10.8,12.6,10.7,12.4,10.7z"/>
</g>
<g id="XMLID_44_">
	<path class="st0" d="M22.5,2h-6.2c-0.2,0-0.3,0.2-0.3,0.4v7.4l0,0c0,0.2,0.1,0.4,0.3,0.4l0,0h6.2l0,0c0.2,0,0.3-0.2,0.3-0.4l0,0
		V2.4C22.8,2.2,22.7,2,22.5,2z"/>
</g>
<g id="XMLID_53_">
	<path class="st0" d="M22.8,13.2c0-0.2-0.1-0.3-0.3-0.3h-6.2c-0.2,0-0.3,0.2-0.3,0.3v5.4c0,0.2,0.1,0.3,0.3,0.3h6.2
		c0.2,0,0.3-0.2,0.3-0.3V13.2z"/>
</g>
<g id="XMLID_43_">
	<path class="st0" d="M12.7,2.3c0-0.2-0.1-0.3-0.3-0.3H6.2C6,2,5.8,2.2,5.8,2.3v5.4C5.8,8,6,8.1,6.2,8.1h6.2c0.2,0,0.3-0.2,0.3-0.3
		V2.3z"/>
</g>
</svg>
