<?xml version="1.0" encoding="UTF-8"?> <svg xmlns="http://www.w3.org/2000/svg" viewBox="0 0 653.88 641.16"><defs><style>.cls-1{fill:#2e2e7f;}.cls-2{fill:#1b5aa3;}.cls-3{fill:#15133f;}</style></defs><g id="Layer_2" data-name="Layer 2"><g id="Layer_1-2" data-name="Layer 1"><path class="cls-1" d="M78.77,311.08A17,17,0,0,0,79,309c-.12-21.57-.17-43.15-.42-64.72-.26-21.93-.14-43.87-.42-65.8-.29-22.22-.21-44.44-.42-66.65-.08-9.18-.12-18.35-.28-27.52a3,3,0,0,1,1.9-3.13q73.05-40,146.08-80c.85-.47,1.6-1.25,2.7-1.13,0,.79,0,1.58,0,2.37q0,107.06,0,214.1c0,.86,0,1.72,0,2.58s0,1.58,0,2.37q0,99.44,0,198.86c0,.79.09,1.57.13,2.35-.54,1.36-1.73.76-2.61.76q-71.75,0-143.47,0l-1.72,0c-.54,0-.7-.4-.82-.83,0-1.29.08-2.58.07-3.86-.15-17.13-.07-34.26-.33-51.38-.27-17.92-.17-35.84-.25-53.76C79.07,312.75,79.33,311.86,78.77,311.08Z"></path><path class="cls-1" d="M574.89,325.68q.11,20.65.22,41.29c0,7.89.11,15.77.15,23.66.07,13.26,0,26.53.21,39.79.3,22.22.15,44.45.43,66.67.26,19.93.19,39.86.41,59.78a3.36,3.36,0,0,1-2,3.48Q501,600.28,427.87,640.3c-.67.37-1.26,1-2.14.84,0-1.15-.08-2.29-.08-3.44q0-106.19,0-212.37a12,12,0,0,0-.15-3,12.36,12.36,0,0,0,.2-3.21q0-99,0-198c0-.79,0-1.58,0-2.36.86,0,1.72-.1,2.57-.1H571.63l2.37,0c.22,6.73.23,13.47.29,20.2.25,28.23.16,56.46.55,84.68C574.85,324.25,574.87,325,574.89,325.68Z"></path><path class="cls-2" d="M574,218.65l-2.37,0H428.35c-.85,0-1.71.06-2.57.1s-1.86-.12-2.79-.12H231.6c-.93,0-1.86-.05-2.79-.08a1.93,1.93,0,0,1,.15-.4l17.81-24.46,21-28.78q9.74-13.37,19.46-26.72,10.23-14.06,20.49-28.09,10.05-13.78,20.08-27.58c1.8-2.49,3.75-4.88,5.33-7.52.79,0,1.57-.08,2.36-.08q118.09,0,236.19,0A3.57,3.57,0,0,1,575.33,77q38.74,69.72,77.59,139.38a18.57,18.57,0,0,1,.9,1.71c.22.5-.22.56-.57.64-.85,0-1.71-.11-2.56-.11q-37.17,0-74.33,0C575.57,218.58,574.78,218.63,574,218.65Z"></path><path class="cls-2" d="M79.58,422.58c.12.43.28.82.82.83l1.72,0q71.73,0,143.47,0c.88,0,2.07.6,2.61-.76H423.1c.64,0,1.29,0,1.93.06-4.89,6.8-9.76,13.61-14.67,20.39q-10.89,15-21.83,30.06l-20.3,28q-11,15.21-22.09,30.4-8.38,11.55-16.76,23.13c-2.8,3.88-5.78,7.65-8.35,11.7l-4.3,0h-234a7.77,7.77,0,0,0-1.08,0c-1.49.24-2.27-.44-3-1.74q-16.52-29.8-33.13-59.53-22.29-40-44.56-80c-.44-.78-1.21-1.47-1-2.53Z"></path><path class="cls-3" d="M333.12,75c-1.58,2.64-3.53,5-5.33,7.52q-10,13.81-20.08,27.58-10.24,14.06-20.49,28.09-9.74,13.35-19.46,26.72l-21,28.78L229,218.11a1.93,1.93,0,0,0-.15.4c-.23.19-.47.37-.71.55,0-.86,0-1.72,0-2.58q0-107.05,0-214.1c0-.79,0-1.58,0-2.37a4.63,4.63,0,0,1,2,1.21L331,73.53C331.67,74,332.4,74.49,333.12,75Z"></path><path class="cls-3" d="M321,566.37c2.57-4,5.55-7.82,8.35-11.7q8.36-11.58,16.76-23.13,11-15.19,22.09-30.4l20.3-28q10.91-15,21.83-30.06c4.91-6.78,9.78-13.59,14.67-20.39l.51-.36a12,12,0,0,1,.15,3q0,106.19,0,212.37c0,1.15.05,2.29.08,3.44-.65.06-1-.43-1.48-.75q-51.37-36.79-102.73-73.61C321.35,566.66,321.2,566.51,321,566.37Z"></path><path class="cls-3" d="M79.58,422.58H.05c-.09-.74.49-1.16.85-1.67L77.84,312.25c.29-.4.62-.78.93-1.17.56.78.3,1.67.3,2.5.08,17.92,0,35.84.25,53.76.26,17.12.18,34.25.33,51.38C79.66,420,79.6,421.29,79.58,422.58Z"></path><path class="cls-3" d="M574,218.65c.78,0,1.57-.07,2.36-.07q37.15,0,74.33,0c.85,0,1.71.07,2.56.11-2,2.85-4.07,5.72-6.14,8.55L576.5,323.7a8.79,8.79,0,0,1-1.61,2c0-.71,0-1.43,0-2.15-.39-28.22-.3-56.45-.55-84.68C574.23,232.12,574.22,225.38,574,218.65Z"></path><path class="cls-1" d="M363.81,257.86c.18.12.34.26.52.36,5.59,3,11.18,5.93,16.79,8.86s11.36,6,17.07,9,11.51,6.11,17.28,9.13c2.39,1.25,4.76,2.51,7.16,3.74a.9.9,0,0,1,.54.93q.21,24.42.44,48.84c0,.29.1.59-.08.86l-.61-.34-55.34-29.68-.67-.34-.61-.34-51.4-27.56-.63-.29c-.27-.32,0-.55.17-.78q9.92-18.54,19.87-37.09l.24-.44c.08-.14.2-.12.33-.1.33.19.65.38,1,.56,4.45,2.33,8.86,4.73,13.33,7,4.66,2.41,9.28,4.92,13.93,7.39C363.34,257.71,363.54,257.9,363.81,257.86Z"></path><path class="cls-1" d="M291.3,384.09l-10.71-5.67c-2-1.08-4.09-2.15-6.13-3.24-3.44-1.81-6.87-3.66-10.32-5.45-5.78-3-11.51-6.13-17.29-9.13-5.19-2.7-10.33-5.48-15.51-8.18a1,1,0,0,1-.62-1q-.18-24.46-.38-48.92c0-.22-.08-.46.08-.67l.9.45,54.89,29.44a7.95,7.95,0,0,1,1.6.88L339,360l.61.33c-.11.23-.21.46-.33.68l-19.86,37-.33.61c-1.77-.88-3.52-1.81-5.26-2.72-7.34-3.85-14.62-7.79-22-11.6Z"></path><path class="cls-2" d="M319.09,398.69l.33-.61,19.86-37c.12-.22.22-.45.33-.68s.28-.46.41-.7q13.26-24.74,26.53-49.47c.12-.24.27-.48.4-.71,0,0,.07,0,.09.09l3.85,8,4.53,9.42q2.11,4.36,4.21,8.73,2.22,4.59,4.43,9.19t4.34,9c.4.81.74,1.65,1.21,2.42-.1.21-.2.42-.31.62Q372.93,387.48,356.59,418a1.06,1.06,0,0,1-1.06.66q-23.38.34-46.78.74h-.57c-.16,0-.11-.14-.09-.24s.27-.43.39-.65l10.3-19.21C318.89,399.1,319,398.89,319.09,398.69Z"></path><path class="cls-2" d="M334.88,242.62c-.13,0-.25,0-.33.1l-.24.44q-9.94,18.54-19.87,37.09c-.13.23-.44.46-.17.78l-.09.17-26.91,50.22-.29.49-3.24-6.62L279,315.48q-2.21-4.56-4.43-9.12l-4.79-9.93c-1.22-2.51-2.43-5-3.66-7.54-.61-1.26-1.17-2.55-1.87-3.77l.6-1.11q16.22-30.24,32.42-60.48a2.6,2.6,0,0,0,.15-.28c.14-.42.43-.53.87-.54q10-.14,20-.31l26.85-.44c.27,0,.55-.11.79.11Z"></path><path class="cls-3" d="M389.61,356.33c-.47-.77-.81-1.61-1.21-2.42q-2.17-4.5-4.34-9t-4.43-9.19q-2.1-4.36-4.21-8.73l-4.53-9.42-3.85-8s-.06-.06-.09-.09l0-.26.67.34,55.34,29.68.61.34a1.43,1.43,0,0,1-.59.35L390.27,356Z"></path><path class="cls-3" d="M264.25,285.12c.7,1.22,1.26,2.51,1.87,3.77,1.23,2.51,2.44,5,3.66,7.54l4.79,9.93q2.22,4.56,4.43,9.12l4.74,9.81,3.24,6.62,0,.18a3.45,3.45,0,0,1-.8-.38l-54.89-29.44-.9-.45c.07-.18.25-.21.4-.28l33.26-16.36Z"></path><path class="cls-3" d="M334.88,242.62l11-20.55c.2.08.23.28.31.45l17.43,34.94a3.42,3.42,0,0,1,.17.4c-.27,0-.47-.15-.68-.26-4.65-2.47-9.27-5-13.93-7.39-4.47-2.3-8.88-4.7-13.33-7C335.53,243,335.21,242.81,334.88,242.62Z"></path><path class="cls-3" d="M319.09,398.69c-.11.2-.2.41-.31.62l-10.3,19.21c-.12.22-.26.43-.39.65-.45-.92-.91-1.84-1.35-2.77l-15.15-31.62a2.31,2.31,0,0,1-.29-.69l.56.28c7.35,3.81,14.63,7.75,22,11.6C315.57,396.88,317.32,397.81,319.09,398.69Z"></path></g></g></svg> 