<?xml version="1.0" encoding="UTF-8"?> <svg xmlns="http://www.w3.org/2000/svg" viewBox="0 0 1789.33 1846.68"><defs><style>.cls-1{fill:#2e2e7f;}.cls-2{fill:#1b5aa3;}.cls-3{fill:#15133f;}.cls-4,.cls-5{fill:none;stroke-miterlimit:10;}.cls-4{stroke:#000;}.cls-5{stroke:#1b5aa3;}</style></defs><g id="Layer_2" data-name="Layer 2"><g id="Layer_1-2" data-name="Layer 1"><path class="cls-1" d="M370.44,634.27a35.61,35.61,0,0,0,.48-4.33c-.25-44-.36-88-.87-132-.52-44.72-.28-89.44-.86-134.15-.58-45.3-.42-90.61-.84-135.91-.17-18.7-.25-37.41-.57-56.11-.06-3.25,1.1-4.86,3.87-6.37Q520.6,83.95,669.49,2.32C671.22,1.37,672.74-.23,675,0c0,1.6-.09,3.21-.09,4.82q0,218.27-.07,436.54c0,1.75.06,3.5.08,5.26,0,1.6-.08,3.21-.08,4.82q0,202.72,0,405.47c0,1.6.18,3.2.27,4.79-1.11,2.76-3.52,1.55-5.33,1.55q-146.25.09-292.51.05c-1.17,0-2.34,0-3.51,0s-1.43-.81-1.67-1.68c0-2.63.16-5.26.14-7.89-.31-34.91-.14-69.83-.67-104.75-.55-36.53-.34-73.07-.51-109.6C371.06,637.66,371.59,635.85,370.44,634.27Z"></path><path class="cls-1" d="M1382,664q.23,42.09.45,84.18c.09,16.08.23,32.16.32,48.24.14,27,.07,54.08.43,81.12.59,45.31.29,90.63.87,135.94.52,40.63.38,81.26.83,121.9,0,3.53-1,5.36-4.18,7.07q-149.28,81.42-298.47,163c-1.36.75-2.56,2-4.36,1.71-.07-2.34-.18-4.67-.18-7l.09-433a25,25,0,0,0-.3-6.11,25.6,25.6,0,0,0,.41-6.54q0-201.9,0-403.8c0-1.6,0-3.21.07-4.82,1.74-.07,3.49-.2,5.24-.2h292.14c1.6,0,3.21.05,4.82.07.46,13.72.48,27.46.6,41.18.5,57.55.32,115.11,1.11,172.67C1381.9,661.12,1382,662.58,1382,664Z"></path><path class="cls-2" d="M1380.17,445.81c-1.61,0-3.22-.07-4.82-.07H1083.21c-1.75,0-3.5.13-5.25.2s-3.78-.23-5.68-.23l-390.23,0c-1.9,0-3.79-.1-5.69-.16a3,3,0,0,1,.31-.81q18.14-24.95,36.31-49.88,21.39-29.35,42.8-58.69,19.85-27.22,39.67-54.48,20.88-28.64,41.78-57.26,20.49-28.11,40.95-56.25c3.67-5.07,7.64-9.93,10.86-15.32,1.6-.06,3.21-.17,4.81-.17q240.8,0,481.57-.09c3.7,0,5.65,1.06,7.47,4.33q79,142.16,158.19,284.18c.64,1.15,1.32,2.28,1.84,3.48.45,1-.45,1.16-1.15,1.32-1.75-.08-3.5-.23-5.24-.23H1385C1383.37,445.66,1381.77,445.76,1380.17,445.81Z"></path><path class="cls-2" d="M372.1,861.61c.24.87.56,1.67,1.67,1.68s2.34,0,3.51,0q146.25,0,292.51-.05c1.81,0,4.22,1.21,5.33-1.55l1.32,0H1072.5c1.31,0,2.63.08,3.94.12-10,13.86-19.9,27.75-29.91,41.58Q1024.32,934.1,1002,964.7q-20.7,28.53-41.37,57.08-22.51,31-45,62-17.12,23.57-34.18,47.15c-5.71,7.93-11.78,15.6-17,23.86l-8.77,0h-477a14.54,14.54,0,0,0-2.19,0c-3,.49-4.63-.89-6.11-3.56q-33.66-60.75-67.55-121.37-45.44-81.54-90.85-163.07c-.88-1.59-2.47-3-1.95-5.16Z"></path><path class="cls-3" d="M889,152.84c-3.22,5.39-7.19,10.25-10.86,15.32q-20.41,28.17-40.95,56.25Q816.35,253,795.45,281.67q-19.85,27.24-39.67,54.48-21.39,29.36-42.8,58.69-18.16,24.93-36.31,49.88a3,3,0,0,0-.31.81l-1.44,1.12c0-1.76-.08-3.51-.08-5.26q0-218.28.07-436.54c0-1.61.06-3.22.09-4.82,1.71.23,2.79,1.53,4.07,2.45q102.81,73.71,205.6,147.45C886.09,151,887.58,151.87,889,152.84Z"></path><path class="cls-3" d="M864.4,1154.77c5.23-8.26,11.3-15.93,17-23.86q17-23.61,34.18-47.15,22.51-31,45-62,20.7-28.53,41.37-57.08,22.26-30.65,44.52-61.28c10-13.83,19.94-27.72,29.91-41.58l1-.74a25,25,0,0,1,.3,6.11l-.09,433c0,2.33.11,4.66.18,7-1.34.14-2.12-.88-3-1.53q-104.74-75-209.45-150.07C865,1155.37,864.73,1155.06,864.4,1154.77Z"></path><path class="cls-3" d="M372.1,861.61H209.94c-.17-1.51,1-2.36,1.74-3.39q78.4-110.81,156.87-221.56c.58-.83,1.26-1.59,1.89-2.38,1.15,1.58.62,3.39.62,5.1.17,36.53,0,73.07.51,109.6.53,34.92.36,69.84.67,104.75C372.26,856.35,372.15,859,372.1,861.61Z"></path><path class="cls-3" d="M1380.17,445.81c1.6-.05,3.2-.15,4.81-.16h151.55c1.74,0,3.49.15,5.24.23-4.18,5.81-8.31,11.65-12.53,17.42q-72,98.35-144,196.67A17.56,17.56,0,0,1,1382,664c0-1.46-.08-2.92-.1-4.38-.79-57.56-.61-115.12-1.11-172.67C1380.65,473.27,1380.63,459.53,1380.17,445.81Z"></path><path class="cls-1" d="M951.62,525.76a9.41,9.41,0,0,0,1.06.72c11.4,6,22.79,12.1,34.23,18.06,11.63,6.06,23.16,12.32,34.8,18.37,11.79,6.13,23.48,12.44,35.24,18.61,4.86,2.55,9.71,5.12,14.59,7.63a1.82,1.82,0,0,1,1.11,1.88q.42,49.8.89,99.6c0,.58.21,1.19-.17,1.74-.41-.23-.81-.47-1.23-.69L959.3,631.17c-.45-.24-.91-.47-1.37-.7l-1.23-.69L851.88,573.6c-.41-.23-.85-.4-1.27-.6-.56-.67.08-1.12.34-1.59q20.24-37.81,40.51-75.62c.16-.3.34-.6.5-.9s.41-.26.67-.2c.67.37,1.33.77,2,1.13,9.06,4.76,18.07,9.64,27.17,14.34,9.52,4.92,18.93,10,28.4,15.05C950.66,525.45,951.06,525.84,951.62,525.76Z"></path><path class="cls-1" d="M803.77,783.12l-21.83-11.55L769.43,765c-7-3.71-14-7.48-21-11.13-11.8-6.13-23.47-12.48-35.26-18.61-10.58-5.5-21.06-11.16-31.63-16.68a2,2,0,0,1-1.25-2.06q-.36-49.87-.78-99.74c0-.46-.17-1,.16-1.37.62.31,1.23.6,1.84.93l111.92,60a7.3,7.3,0,0,0,1.62.77,7.64,7.64,0,0,0,1.63,1L901,734.06l1.24.69c-.23.46-.43.93-.68,1.38l-40.47,75.52-.69,1.24c-3.61-1.79-7.17-3.68-10.73-5.55-15-7.85-29.8-15.87-44.79-23.64Z"></path><path class="cls-2" d="M860.43,812.89l.69-1.24,40.47-75.52c.25-.45.45-.92.68-1.38s.58-1,.85-1.44l54.07-100.87c.27-.49.56-1,.83-1.45.06.07.14.12.17.19l7.86,16.3,9.24,19.2,8.59,17.8q4.51,9.36,9,18.74,4.43,9.18,8.87,18.38c.8,1.65,1.51,3.35,2.45,4.93-.2.42-.4.85-.62,1.26q-33.36,62.25-66.7,124.5a2.14,2.14,0,0,1-2.16,1.33q-47.68.72-95.38,1.52c-.38,0-.77,0-1.15,0s-.24-.28-.18-.48c.26-.44.54-.87.78-1.32q10.51-19.59,21-39.18C860,813.74,860.22,813.31,860.43,812.89Z"></path><path class="cls-2" d="M892.63,494.69c-.26-.06-.51-.09-.67.2s-.34.6-.5.9Q871.2,533.59,851,571.41c-.26.47-.9.92-.34,1.59l-.18.34L795.55,675.73c-.18.34-.39.66-.58,1-2.2-4.5-4.42-9-6.6-13.5-3.24-6.66-6.45-13.33-9.68-20q-4.5-9.3-9-18.6l-9.78-20.23c-2.48-5.13-4.95-10.26-7.45-15.37-1.26-2.58-2.4-5.21-3.81-7.7.41-.76.82-1.51,1.22-2.27L816,455.75a4.44,4.44,0,0,0,.3-.57c.3-.85.87-1.07,1.77-1.09q20.37-.29,40.73-.64l54.74-.89c.54,0,1.12-.22,1.61.21Z"></path><path class="cls-3" d="M1004.21,726.53c-.94-1.58-1.65-3.28-2.45-4.93q-4.46-9.18-8.87-18.38-4.5-9.37-9-18.74l-8.59-17.8-9.24-19.2-7.86-16.3c0-.07-.11-.12-.17-.19l-.09-.52c.46.23.92.46,1.37.7l112.84,60.51c.42.22.82.46,1.23.69a2.69,2.69,0,0,1-1.19.71l-66.61,32.72C1005.11,726,1004.67,726.28,1004.21,726.53Z"></path><path class="cls-3" d="M748.63,581.33c1.41,2.49,2.55,5.12,3.81,7.7,2.5,5.11,5,10.24,7.45,15.37l9.78,20.23q4.51,9.3,9,18.6c3.23,6.67,6.44,13.34,9.68,20,2.18,4.51,4.4,9,6.6,13.5,0,.12,0,.24,0,.37a7.3,7.3,0,0,1-1.62-.77l-111.92-60c-.61-.33-1.22-.62-1.84-.93.15-.36.52-.42.82-.57l67.81-33.35Z"></path><path class="cls-3" d="M892.63,494.69l22.47-41.92c.41.16.47.59.63.92q17.78,35.63,35.54,71.25c.13.27.24.55.35.82-.56.08-1-.31-1.4-.55-9.47-5-18.88-10.13-28.4-15.05-9.1-4.7-18.11-9.58-27.17-14.34C894,495.46,893.3,495.06,892.63,494.69Z"></path><path class="cls-3" d="M860.43,812.89c-.21.42-.41.85-.63,1.26q-10.49,19.59-21,39.18c-.24.45-.52.88-.78,1.32-.93-1.89-1.86-3.76-2.77-5.65q-15.45-32.24-30.89-64.47a5.14,5.14,0,0,1-.59-1.41l1.14.58c15,7.77,29.84,15.79,44.79,23.64C853.26,809.21,856.82,811.1,860.43,812.89Z"></path><polygon class="cls-3" points="237.7 1532.68 93.89 1683.14 0 1683.14 142.29 1532.68 237.7 1532.68"></polygon><polygon class="cls-1" points="950.69 1532.68 806.88 1683.14 712.99 1683.14 855.28 1532.68 904.38 1480.76 950.69 1532.68"></polygon><path class="cls-2" d="M482.77,1606.64q0,59.31-35.48,93.87t-108.24,34.56H44.79L0,1683.14H344.94c26,0,45.83-4.83,59.79-17.92q13.92-13.08,18.57-34c25.92-68.41-36.89-146.18-36.89-146.18q36.54,7.62,60,29Q482.76,1547.34,482.77,1606.64Z"></path><polygon class="cls-1" points="237.7 1532.68 0 1532.68 0 1480.76 191.39 1480.76 237.7 1532.68"></polygon><polygon class="cls-3" points="1789.33 1532.68 1645.53 1683.14 1551.63 1683.14 1693.92 1532.68 1789.33 1532.68"></polygon><polygon class="cls-1" points="1789.33 1683.66 1789.33 1735.07 1596.42 1735.07 1565.34 1699.03 1552.08 1683.66 1789.33 1683.66"></polygon><polygon class="cls-2" points="1789.33 1532.68 1551.63 1532.68 1551.63 1480.76 1743.03 1480.76 1789.33 1532.68"></polygon><polygon class="cls-2" points="759.29 1735.07 757.78 1735.07 713.18 1683.37 759.29 1735.07"></polygon><polygon class="cls-2" points="1048.04 1480.76 1048.04 1734.42 996.12 1734.42 996.12 1735.07 759.29 1735.07 713.18 1683.37 713 1683.15 996.12 1683.15 996.12 1480.76 1048.04 1480.76"></polygon><polygon class="cls-2" points="713.18 1683.37 712.99 1683.15 713 1683.15 713.18 1683.37"></polygon><rect class="cls-2" x="759.29" y="1735.07" width="236.82" height="0.01"></rect><path class="cls-1" d="M1458.45,1661v74l-49-51.85L1289.78,1557q-16.52-14.4-30.38-19.85a81.52,81.52,0,0,0-30-5.45q-31.27,0-52.69,21.26a68.39,68.39,0,0,0-5.26,5.82l0,0c-1.42,1.57-71.88,79.9,8.35,168.57a122.58,122.58,0,0,1-44.34-28.11q-36.7-35.84-36.7-90.45t37.41-91.16q37.41-36.51,90.27-36.52t91.86,34.77Z"></path><polygon class="cls-3" points="904.38 1480.76 855.28 1532.68 500.94 1532.68 500.94 1480.76 904.38 1480.76"></polygon><polygon class="cls-1" points="692.6 1633.88 500.94 1633.87 500.94 1581.95 692.33 1581.95 692.6 1633.88"></polygon><polygon class="cls-2" points="692.6 1735.08 500.94 1735.08 500.94 1683.15 692.33 1683.15 692.6 1735.08"></polygon><path class="cls-3" d="M423.3,1631.17a105.9,105.9,0,0,0,2.34-23.07q0-37.49-20.91-57.67c-14-13.46-35.26-17.74-64.12-17.74H308.85v98.52H252.09V1480.76H342a217.32,217.32,0,0,1,44.45,4.23S449.22,1562.76,423.3,1631.17Z"></path><path class="cls-4" d="M423.3,1631.17v0"></path><rect class="cls-3" x="996.12" y="1400.01" width="57.35" height="51.7"></rect><path class="cls-3" d="M1327.37,1631.21v63.11q-36.54,40.76-101.17,40.75a135.8,135.8,0,0,1-46.45-7.71h0c-80.23-88.67-9.77-167-8.35-168.57q-16.14,20-16.14,50.19,0,34.77,20.54,55.67t49,20.91q28.46,0,47.42-10.89v-43.45Z"></path><polygon class="cls-2" points="1510.38 1481.11 1510.38 1735.07 1458.53 1735.07 1458.45 1734.99 1458.45 1481.11 1510.38 1481.11"></polygon><polygon class="cls-2" points="1458.53 1735.07 1458.45 1735.07 1458.45 1734.99 1458.53 1735.07"></polygon><line class="cls-5" x1="1179.75" y1="1727.36" x2="1179.74" y2="1727.35"></line><path d="M39.71,1802.79h8v2.45h-.46l-7.54-.66Zm.38,41.21,6.39-.66h1.05l6.59.66v1.79h-14Zm5.81-41.21h1.81l.43,19v24H45.9Zm0,0h3.56L66,1842.46H64.77l16.08-39.67h2.36l-17.48,43H64Zm29,41.21,7.54-.66h1l7.8.66v1.79H74.91Zm6.38-17.61.11-23.6h3.47c-.16,6.48-.16,13.11-.16,19.77V1826c0,6.61,0,13.24.16,19.77H81.14C81.29,1839.31,81.25,1832.68,81.29,1826.39Zm1.68-23.6H91.3v1.79l-7.8.66H83Z"></path><path d="M166.78,1824.31c0,13.71-8.62,22.37-18.89,22.37S129,1838.25,129,1824.31c0-13.71,8.67-22.41,18.91-22.41S166.78,1810.37,166.78,1824.31Zm-18.89,20.23c9.72,0,15-9.53,15-20.23s-5.23-20.27-15-20.27-15,9.57-15,20.27S138.18,1844.54,147.89,1844.54Z"></path><path d="M204.44,1804.58v-1.79h8.32v2.45h-.52Zm8.32,38.76v2.45h-8.32V1844l7.8-.66ZM211,1823c0-7.07,0-13.7-.16-20.23h3.78c-.15,6.48-.15,13.11-.15,20.23v1.55c0,8.06,0,14.69.15,21.22h-3.78c.16-6.48.16-13.11.16-21.22Zm1.73,20.75h7.55c12.29,0,18.41-7.45,18.41-19.43,0-12.7-6.2-19.53-17.61-19.53h-8.35v-2h9.06c12.88,0,20.84,7.68,20.84,21.55,0,13.28-8.3,21.45-21.7,21.45h-8.2Z"></path><path d="M280.23,1804.58v-1.79h8.32v2.45H288Zm8.32,38.76v2.45h-8.32V1844l7.8-.66Zm-1.73-20.78c0-6.61,0-13.24-.16-19.77h3.79c-.16,6.48-.16,13.11-.16,20.53v1.25c0,8.06,0,14.69.16,21.22h-3.79c.16-6.48.16-13.11.16-19.77Zm20.92-19.77,1.7,2.13H288.55v-2.13h22.52l.56,10.41h-2.37Zm-5,22.2H288.55v-2h14.23Zm9.89,10.39-.56,10.41H288.55v-2.13h21.94l-1.7,2.13,1.52-10.41Zm-11.06-12.12.77-6.46h1.89v14.33h-1.89l-.77-6.59Z"></path><path d="M350.53,1804.58v-1.79h8.33v2.45h-.53Zm8.85,38.76,7.8.66v1.79H350.53V1844l7.8-.66Zm-2.26-20.78c0-6.61,0-13.24-.15-19.77h3.78c-.16,6.55-.16,13-.16,21.54v1.05c0,7.25,0,13.88.16,20.41H357c.15-6.48.15-13.11.15-19.77Zm1.74,1.3h8.73c6.7,0,11-4.22,11-9.81s-3.48-9.24-11.17-9.24h-8.6v-2h8.7c9.31,0,14.6,4,14.6,11.26,0,6-4.62,10.75-12.33,11.38l-.23-.55c4.75.56,6.53,2.48,8.14,7.27l4.15,12.26-1.38-.91,6.88.5v1.79a18.15,18.15,0,0,1-4.29.45c-3.47,0-4.62-.94-5.27-3.08l-3.41-10.93c-1.51-4.9-3.19-6.44-8.78-6.44h-6.78Z"></path><path d="M428,1804.12l2.78,1-7.77-.58v-1.79h8.33l27.68,40v3.47h-1.59ZM423.26,1844l6.4-.66h1l7.41.66v1.79H423.26Zm5.65-41.21,2.21,2v41h-2.21Zm20.94,0h14.86v1.79l-6.27.66h-1.05l-7.54-.66Zm7,0H459v43.45l-2.21-2.21Z"></path><path d="M549.77,1804.58v-1.79h8.32v2.45h-.52Zm8.32,38.76v2.45h-8.32V1844l7.8-.66ZM556.36,1823c0-7.07,0-13.7-.16-20.23H560c-.15,6.48-.15,13.11-.15,20.23v1.55c0,8.06,0,14.69.15,21.22H556.2c.16-6.48.16-13.11.16-21.22Zm1.73,20.75h7.55c12.29,0,18.42-7.45,18.42-19.43,0-12.7-6.21-19.53-17.62-19.53h-8.35v-2h9.06c12.88,0,20.85,7.68,20.85,21.55,0,13.28-8.31,21.45-21.71,21.45h-8.2Z"></path><path d="M625.56,1804.58v-1.79h8.32v2.45h-.52Zm8.32,38.76v2.45h-8.32V1844l7.8-.66Zm-1.73-20.78c0-6.61,0-13.24-.16-19.77h3.79c-.16,6.48-.16,13.11-.16,20.53v1.25c0,8.06,0,14.69.16,21.22H632c.16-6.48.16-13.11.16-19.77Zm20.92-19.77,1.7,2.13H633.88v-2.13H656.4l.56,10.41h-2.37Zm-5,22.2H633.88v-2h14.23Zm9.89,10.39-.56,10.41H633.88v-2.13h21.94l-1.7,2.13,1.52-10.41Zm-11.06-12.12.77-6.46h1.89v14.33h-1.89l-.77-6.59Z"></path><path d="M719,1835.55c0-4.49-2.26-6.83-9.36-9.68l-2.39-.95c-6.69-2.67-10.33-6.33-10.33-12.08,0-7.34,6-10.94,13-10.94a16.65,16.65,0,0,1,10.33,3.2L720,1813h-2.39l-1.11-8.65,2.23,1.2v1.75a12.68,12.68,0,0,0-8.9-3.27c-5.66,0-9.8,2.67-9.8,8.14,0,4.58,3,7.17,7.84,9.11l2.52,1c9.07,3.6,11.72,7,11.72,12.77,0,7.26-6.06,11.63-14.34,11.63a23.11,23.11,0,0,1-12.15-3.42l.34-8.41h2.28l1.17,9-2.41-1.14v-1.86c3.77,2.8,6.35,3.73,10.69,3.73C714.32,1844.54,719,1841.55,719,1835.55Z"></path><path d="M760.23,1804.58v-1.79h16.66v1.79l-7.81.66H768Zm8.85,38.76,7.81.66v1.79H760.23V1844l7.8-.66Zm-2.26-20.78c0-6.61,0-13.24-.15-19.77h3.78c-.15,6.48-.15,13.11-.15,19.77V1826c0,6.61,0,13.24.15,19.77h-3.78c.15-6.48.15-13.11.15-19.77Z"></path><path d="M849.25,1842.84a25.48,25.48,0,0,1-13.62,3.84c-12.61,0-21.06-9.25-21.06-22.37s8.67-22.41,21.2-22.41a22.73,22.73,0,0,1,12.86,3.48l.26,9H846.4l-1.33-9.33,2.4.86v2.24a16.67,16.67,0,0,0-11.38-4.14c-10.48,0-17.58,7.78-17.58,20.27s6.83,20.21,17.54,20.21a20.58,20.58,0,0,0,11.39-3.3l-1.66,1.83v-3.29c0-4.77-.07-9.56-.19-14.33h3.85c-.13,4.33-.19,8.75-.19,14.33Zm-10.87-15.61v-1.8h15.46v1.8l-6.11.52h-1.05Z"></path><path d="M894,1804.12l2.79,1-7.77-.58v-1.79h8.32l27.69,40v3.47h-1.59ZM889.3,1844l6.39-.66h1l7.41.66v1.79H889.3Zm5.65-41.21,2.2,2v41H895Zm20.93,0h14.86v1.79l-6.26.66h-1.05l-7.55-.66Zm7,0h2.21v43.45l-2.21-2.21Z"></path><path d="M991.33,1835.55c0-4.49-2.26-6.83-9.36-9.68l-2.39-.95c-6.7-2.67-10.33-6.33-10.33-12.08,0-7.34,6-10.94,13-10.94a16.67,16.67,0,0,1,10.33,3.2l-.27,7.91H990l-1.1-8.65,2.23,1.2v1.75a12.69,12.69,0,0,0-8.91-3.27c-5.65,0-9.79,2.67-9.79,8.14,0,4.58,3,7.17,7.83,9.11l2.53,1c9.06,3.6,11.71,7,11.71,12.77,0,7.26-6.05,11.63-14.33,11.63a23.11,23.11,0,0,1-12.15-3.42l.34-8.41h2.28l1.17,9-2.41-1.14v-1.86c3.76,2.8,6.35,3.73,10.69,3.73C986.67,1844.54,991.33,1841.55,991.33,1835.55Z"></path><path d="M1080.17,1804.58v-1.79h16.65v1.79l-7.8.66h-1Zm8.85,38.76,7.8.66v1.79h-16.65V1844l7.8-.66Zm-2.26-20.78c0-6.61,0-13.24-.15-19.77h3.78c-.16,6.48-.16,13.11-.16,19.77V1826c0,6.61,0,13.24.16,19.77h-3.78c.15-6.48.15-13.11.15-19.77Z"></path><path d="M1139.65,1804.12l2.78,1-7.77-.58v-1.79H1143l27.68,40v3.47h-1.59Zm-4.74,39.88,6.4-.66h1l7.41.66v1.79h-14.86Zm5.65-41.21,2.21,2v41h-2.21Zm20.94,0h14.86v1.79l-6.27.66h-1l-7.54-.66Zm7,0h2.21v43.45l-2.21-2.21Z"></path><path d="M1218.31,1804.12l2.78,1-7.77-.58v-1.79h8.33l27.68,40v3.47h-1.59Zm-4.74,39.88,6.4-.66h1l7.41.66v1.79h-14.86Zm5.65-41.21,2.21,2v41h-2.21Zm20.94,0H1255v1.79l-6.27.66h-1l-7.54-.66Zm7,0h2.21v43.45l-2.21-2.21Z"></path><path d="M1330.12,1824.31c0,13.71-8.63,22.37-18.9,22.37s-18.91-8.43-18.91-22.37c0-13.71,8.67-22.41,18.91-22.41S1330.12,1810.37,1330.12,1824.31Zm-18.9,20.23c9.72,0,15-9.53,15-20.23s-5.24-20.27-15-20.27-15,9.57-15,20.27S1301.51,1844.54,1311.22,1844.54Z"></path><path d="M1371.57,1805.24l-7.35-.66v-1.79h16v1.92l-7.77.53Zm-2.57-2.45h3.67l13.44,39.71h-1l12.86-39.71h2.38l-14.3,43.45h-1.8Zm28.67,2.45-7.06-.53v-1.92h14.62v1.79l-6.51.66Z"></path><path d="M1431.85,1844l5.89-.62h1l6.52.62v1.79h-13.46Zm18.9-41.61h2.31l14.64,43.4h-3.63l-13.39-40.4,1.24-.38-13.28,40.78h-2.32Zm-7.77,26.42h17.53l.71,2h-19Zm13.47,15.19,7.82-.62h1l7.54.62v1.79h-16.4Z"></path><path d="M1505.12,1804.92l1.7-2.13-1.55,10.78h-2.36l.59-10.78h34.37l.59,10.78h-2.36l-1.55-10.78,1.7,2.13Zm16.09,38.42,8.44.66v1.79h-17.93V1844l8.44-.66Zm-2.26-20.78c0-6.61,0-13.24-.16-19.77h3.79c-.16,6.48-.16,13.11-.16,19.77V1826c0,6.61,0,13.24.16,19.77h-3.79c.16-6.48.16-13.11.16-19.77Z"></path><path d="M1575,1804.58v-1.79h16.65v1.79l-7.8.66h-1Zm8.85,38.76,7.8.66v1.79H1575V1844l7.8-.66Zm-2.26-20.78c0-6.61,0-13.24-.15-19.77h3.78c-.16,6.48-.16,13.11-.16,19.77V1826c0,6.61,0,13.24.16,19.77h-3.78c.15-6.48.15-13.11.15-19.77Z"></path><path d="M1667.09,1824.31c0,13.71-8.62,22.37-18.89,22.37s-18.92-8.43-18.92-22.37c0-13.71,8.68-22.41,18.92-22.41S1667.09,1810.37,1667.09,1824.31Zm-18.89,20.23c9.71,0,15-9.53,15-20.23s-5.24-20.27-15-20.27-15,9.57-15,20.27S1638.49,1844.54,1648.2,1844.54Z"></path><path d="M1709.67,1804.12l2.79,1-7.77-.58v-1.79H1713l27.69,40v3.47h-1.59Zm-4.73,39.88,6.39-.66h1.05l7.41.66v1.79h-14.85Zm5.65-41.21,2.2,2v41h-2.2Zm20.94,0h14.85v1.79l-6.26.66h-1l-7.54-.66Zm7,0h2.21v43.45l-2.21-2.21Z"></path></g></g></svg> 