<?xml version="1.0" encoding="UTF-8"?> <svg xmlns="http://www.w3.org/2000/svg" viewBox="0 0 3137.56 653.43"><defs><style>.cls-1{fill:#2e2e7f;}.cls-2{fill:#1b5aa3;}.cls-3{fill:#15133f;}.cls-4,.cls-5{fill:none;stroke-miterlimit:10;}.cls-4{stroke:#000;}.cls-5{stroke:#1b5aa3;}</style></defs><g id="Layer_2" data-name="Layer 2"><g id="Layer_1-2" data-name="Layer 1"><path class="cls-1" d="M78.77,323.35a17.16,17.16,0,0,0,.23-2.12c-.12-21.58-.17-43.15-.42-64.72-.26-21.93-.14-43.87-.42-65.8-.29-22.22-.21-44.44-.42-66.66-.08-9.17-.12-18.34-.28-27.52a3,3,0,0,1,1.9-3.12q73.05-40,146.08-80c.85-.47,1.6-1.26,2.7-1.13,0,.79,0,1.58,0,2.37q0,107,0,214.1c0,.86,0,1.72,0,2.58s0,1.58,0,2.36q0,99.44,0,198.87c0,.79.09,1.57.13,2.35-.54,1.36-1.73.76-2.61.76q-71.75,0-143.47,0l-1.72,0c-.54,0-.7-.4-.82-.83,0-1.29.08-2.58.07-3.86-.15-17.13-.07-34.26-.33-51.39-.27-17.91-.17-35.83-.25-53.75C79.07,325,79.33,324.13,78.77,323.35Z"></path><path class="cls-1" d="M574.89,338q.11,20.64.22,41.29c0,7.89.11,15.77.15,23.66.07,13.26,0,26.53.21,39.79.3,22.22.15,44.44.43,66.67.26,19.92.19,39.85.41,59.78a3.35,3.35,0,0,1-2,3.47q-73.21,39.95-146.39,80c-.67.36-1.26,1-2.14.83,0-1.14-.08-2.28-.08-3.43q0-106.19,0-212.37a12.07,12.07,0,0,0-.15-3,12.26,12.26,0,0,0,.2-3.2q0-99,0-198c0-.79,0-1.58,0-2.36.86,0,1.72-.1,2.57-.1H571.63c.79,0,1.58,0,2.37,0,.22,6.73.23,13.47.29,20.2.25,28.22.16,56.45.55,84.68C574.85,336.52,574.87,337.23,574.89,338Z"></path><path class="cls-2" d="M574,230.92c-.79,0-1.58,0-2.37,0H428.35c-.85,0-1.71.06-2.57.09s-1.86-.11-2.79-.11H231.6c-.93,0-1.86-.05-2.79-.08a1.74,1.74,0,0,1,.15-.4l17.81-24.46,21-28.78q9.74-13.37,19.46-26.72,10.23-14.05,20.49-28.09,10.05-13.78,20.08-27.59c1.8-2.48,3.75-4.87,5.33-7.51.79,0,1.57-.08,2.36-.08q118.09,0,236.19-.05a3.57,3.57,0,0,1,3.66,2.13Q614.07,159,652.92,228.6c.31.57.65,1.12.9,1.71s-.22.57-.57.65c-.85,0-1.71-.11-2.56-.11H576.36C575.57,230.84,574.78,230.89,574,230.92Z"></path><path class="cls-2" d="M79.58,434.85c.12.43.28.82.82.83l1.72,0q71.73,0,143.47,0c.88,0,2.07.6,2.61-.76H423.1c.64,0,1.29,0,1.93.07-4.89,6.79-9.76,13.61-14.67,20.39q-10.89,15-21.83,30.06-10.15,14-20.3,28-11,15.21-22.09,30.4-8.38,11.55-16.76,23.13c-2.8,3.88-5.78,7.64-8.35,11.7l-4.3,0h-234a6.48,6.48,0,0,0-1.08,0c-1.49.24-2.27-.44-3-1.74q-16.52-29.8-33.13-59.53-22.29-40-44.56-80c-.44-.78-1.21-1.47-1-2.53Z"></path><path class="cls-3" d="M333.12,87.23c-1.58,2.64-3.53,5-5.33,7.51q-10,13.83-20.08,27.59-10.24,14-20.49,28.09-9.74,13.35-19.46,26.72l-21,28.78L229,230.38a1.74,1.74,0,0,0-.15.4l-.71.55c0-.86,0-1.72,0-2.58q0-107.05,0-214.1c0-.79,0-1.58,0-2.37a4.61,4.61,0,0,1,2,1.2L331,85.8C331.67,86.3,332.4,86.76,333.12,87.23Z"></path><path class="cls-3" d="M321,578.64c2.57-4.06,5.55-7.82,8.35-11.7q8.36-11.6,16.76-23.13,11-15.21,22.09-30.4,10.15-14,20.3-28,10.91-15,21.83-30.06c4.91-6.78,9.78-13.6,14.67-20.39l.51-.37a12.07,12.07,0,0,1,.15,3q0,106.18,0,212.37c0,1.15.05,2.29.08,3.43-.65.07-1-.42-1.48-.75l-102.73-73.6C321.35,578.93,321.2,578.78,321,578.64Z"></path><path class="cls-3" d="M79.58,434.85H.05c-.09-.74.49-1.16.85-1.67L77.84,324.52c.29-.41.62-.78.93-1.17.56.78.3,1.67.3,2.5.08,17.92,0,35.84.25,53.75.26,17.13.18,34.26.33,51.39C79.66,432.27,79.6,433.56,79.58,434.85Z"></path><path class="cls-3" d="M574,230.92c.78,0,1.57-.08,2.36-.08h74.33c.85,0,1.71.07,2.56.11-2,2.85-4.07,5.71-6.14,8.54Q611.82,287.74,576.5,336a8.84,8.84,0,0,1-1.61,2c0-.72,0-1.43,0-2.15-.39-28.23-.3-56.46-.55-84.68C574.23,244.39,574.22,237.65,574,230.92Z"></path><path class="cls-1" d="M363.81,270.13c.18.12.34.26.52.36,5.59,2.95,11.18,5.93,16.79,8.85s11.36,6.05,17.07,9,11.51,6.11,17.28,9.13c2.39,1.25,4.76,2.51,7.16,3.74a.9.9,0,0,1,.54.93q.21,24.42.44,48.84c0,.29.1.59-.08.86l-.61-.34-55.34-29.68-.67-.34-.61-.34-51.4-27.56c-.21-.11-.42-.19-.63-.29-.27-.33,0-.55.17-.78q9.92-18.56,19.87-37.09l.24-.44c.08-.14.2-.13.33-.1.33.19.65.38,1,.56,4.45,2.33,8.86,4.72,13.33,7,4.66,2.41,9.28,4.92,13.93,7.38C363.34,270,363.54,270.17,363.81,270.13Z"></path><path class="cls-1" d="M291.3,396.36l-10.71-5.67-6.13-3.24c-3.44-1.82-6.87-3.66-10.32-5.46-5.78-3-11.51-6.12-17.29-9.12-5.19-2.7-10.33-5.48-15.51-8.18a1,1,0,0,1-.62-1q-.18-24.46-.38-48.92c0-.23-.08-.47.08-.67l.9.45L286.21,344a3.91,3.91,0,0,0,.8.38,3.81,3.81,0,0,0,.8.49L339,372.3l.61.33c-.11.23-.21.46-.33.68l-19.86,37-.33.61c-1.77-.88-3.52-1.81-5.26-2.73-7.34-3.84-14.62-7.78-22-11.59Z"></path><path class="cls-2" d="M319.09,411l.33-.61,19.86-37c.12-.22.22-.45.33-.68s.28-.46.41-.7l26.53-49.48c.12-.24.27-.47.4-.71a.43.43,0,0,1,.09.1l3.85,8,4.53,9.42q2.11,4.37,4.21,8.73,2.22,4.59,4.43,9.19t4.34,9c.4.81.74,1.64,1.21,2.42-.1.21-.2.42-.31.62q-16.37,30.52-32.71,61.06a1,1,0,0,1-1.06.65l-46.78.75a5.42,5.42,0,0,1-.57,0c-.16,0-.11-.13-.09-.23s.27-.43.39-.65l10.3-19.21C318.89,411.37,319,411.16,319.09,411Z"></path><path class="cls-2" d="M334.88,254.89c-.13,0-.25,0-.33.1l-.24.44q-9.94,18.54-19.87,37.09c-.13.23-.44.45-.17.78l-.09.17-26.91,50.21c-.09.17-.19.33-.29.49l-3.24-6.61L279,327.75q-2.21-4.56-4.43-9.13-2.4-5-4.79-9.92c-1.22-2.51-2.43-5-3.66-7.54-.61-1.26-1.17-2.55-1.87-3.78l.6-1.11q16.22-30.24,32.42-60.48a1.82,1.82,0,0,0,.15-.27c.14-.42.43-.53.87-.54q10-.14,20-.31l26.85-.44c.27,0,.55-.11.79.1Q340.4,244.62,334.88,254.89Z"></path><path class="cls-3" d="M389.61,368.6c-.47-.78-.81-1.61-1.21-2.42q-2.17-4.5-4.34-9T379.63,348q-2.1-4.37-4.21-8.73l-4.53-9.42-3.85-8a.43.43,0,0,0-.09-.1l0-.25.67.34,55.34,29.68.61.34a1.43,1.43,0,0,1-.59.35l-32.67,16Z"></path><path class="cls-3" d="M264.25,297.38c.7,1.23,1.26,2.52,1.87,3.78,1.23,2.51,2.44,5,3.66,7.54q2.4,5,4.79,9.92,2.22,4.58,4.43,9.13l4.74,9.81,3.24,6.62,0,.18a3.91,3.91,0,0,1-.8-.38l-54.89-29.44-.9-.45c.07-.18.25-.21.4-.28l33.26-16.36Z"></path><path class="cls-3" d="M334.88,254.89q5.5-10.27,11-20.56c.2.08.23.29.31.45l17.43,35a3.42,3.42,0,0,1,.17.4c-.27,0-.47-.15-.68-.27-4.65-2.46-9.27-5-13.93-7.38-4.47-2.31-8.88-4.7-13.33-7C335.53,255.27,335.21,255.08,334.88,254.89Z"></path><path class="cls-3" d="M319.09,411c-.11.2-.2.41-.31.62l-10.3,19.21c-.12.22-.26.43-.39.65-.45-.93-.91-1.85-1.35-2.77l-15.15-31.62a2.31,2.31,0,0,1-.29-.69l.56.28c7.35,3.81,14.63,7.75,22,11.59C315.57,409.15,317.32,410.08,319.09,411Z"></path><polygon class="cls-3" points="1045.92 178.85 852.07 381.67 725.5 381.67 917.31 178.85 1045.92 178.85"></polygon><polygon class="cls-1" points="2007.05 178.85 1813.2 381.67 1686.63 381.67 1878.44 178.85 1944.63 108.85 2007.05 178.85"></polygon><path class="cls-2" d="M1376.28,278.54q0,79.95-47.82,126.54t-145.91,46.59H785.88l-60.38-70h465c35,0,61.78-6.51,80.59-24.16q18.76-17.62,25-45.9c34.94-92.22-49.73-197.06-49.73-197.06q49.26,10.28,80.84,39.17Q1376.27,198.6,1376.28,278.54Z"></path><polygon class="cls-1" points="1045.92 178.85 725.5 178.85 725.5 108.85 983.5 108.85 1045.92 178.85"></polygon><polygon class="cls-3" points="3137.56 178.85 2943.71 381.67 2817.14 381.67 3008.95 178.85 3137.56 178.85"></polygon><polygon class="cls-1" points="3137.56 382.37 3137.56 451.67 2877.52 451.67 2835.62 403.09 2817.74 382.37 3137.56 382.37"></polygon><polygon class="cls-2" points="3137.56 178.85 2817.14 178.85 2817.14 108.85 3075.14 108.85 3137.56 178.85"></polygon><polygon class="cls-2" points="1749.04 451.67 1747.01 451.67 1686.89 381.98 1749.04 451.67"></polygon><polygon class="cls-2" points="2138.29 108.85 2138.29 450.8 2068.29 450.8 2068.29 451.67 1749.04 451.67 1686.89 381.98 1686.64 381.68 2068.29 381.68 2068.29 108.85 2138.29 108.85"></polygon><polygon class="cls-2" points="1686.89 381.98 1686.63 381.68 1686.64 381.68 1686.89 381.98"></polygon><polygon class="cls-2" points="2068.29 451.67 2068.29 451.68 1749.05 451.68 1749.04 451.67 2068.29 451.67"></polygon><path class="cls-1" d="M2691.53,351.77v99.79l-66.09-69.89L2464.16,211.6q-22.26-19.41-41-26.76a109.93,109.93,0,0,0-40.48-7.34q-42.15,0-71,28.65a95,95,0,0,0-7.09,7.85l0,0c-1.92,2.11-96.9,107.71,11.25,227.23a165.07,165.07,0,0,1-59.77-37.89q-49.49-48.3-49.48-121.93T2257,158.56q50.43-49.23,121.69-49.24t123.83,46.88Z"></path><polygon class="cls-3" points="1944.63 108.85 1878.44 178.85 1400.78 178.85 1400.78 108.85 1944.63 108.85"></polygon><polygon class="cls-1" points="1659.14 315.26 1400.78 315.25 1400.78 245.25 1658.78 245.25 1659.14 315.26"></polygon><polygon class="cls-2" points="1659.14 451.68 1400.78 451.68 1400.78 381.68 1658.78 381.68 1659.14 451.68"></polygon><path class="cls-3" d="M1296.12,311.61a143.08,143.08,0,0,0,3.16-31.1q0-50.52-28.2-77.74c-18.81-18.15-47.52-23.92-86.43-23.92h-42.81V311.67h-76.51V108.85h121.14a293.07,293.07,0,0,1,59.92,5.7S1331.06,219.39,1296.12,311.61Z"></path><path class="cls-4" d="M1296.12,311.61a.14.14,0,0,1,0,.06"></path><rect class="cls-3" x="2068.29" width="77.31" height="69.69"></rect><path class="cls-3" d="M2514.83,311.67v85.07q-49.26,54.94-136.38,54.93-33.82,0-62.62-10.4h0c-108.15-119.52-13.17-225.12-11.25-227.23q-21.77,27-21.77,67.65,0,46.88,27.7,75.05t66.06,28.18q38.36,0,63.92-14.68V311.67Z"></path><polygon class="cls-2" points="2761.53 109.32 2761.53 451.67 2691.63 451.67 2691.53 451.56 2691.53 109.32 2761.53 109.32"></polygon><polygon class="cls-2" points="2691.63 451.67 2691.53 451.67 2691.53 451.56 2691.63 451.67"></polygon><line class="cls-5" x1="2315.83" y1="441.27" x2="2315.82" y2="441.26"></line><path d="M779,543h10.79v3.31h-.63L779,545.37Zm.51,55.56,8.62-.89h1.41l8.89.89v2.42H779.54ZM787.38,543h2.44l.57,25.58v32.4h-3Zm0,0h4.8l22.25,53.49h-1.65L834.49,543h3.18l-23.57,58h-2.32Zm39.07,55.56,10.16-.89h1.42l10.51.89v2.42H826.48Zm8.6-23.73.15-31.83h4.67c-.21,8.74-.21,17.68-.21,26.66v4.66c0,8.91,0,17.85.21,26.66h-5C835.08,592.19,835,583.25,835.08,574.78ZM837.35,543h11.22v2.42l-10.51.89h-.71Z"></path><path d="M950.33,572c0,18.47-11.63,30.15-25.47,30.15s-25.5-11.36-25.5-30.15c0-18.48,11.7-30.21,25.5-30.21S950.33,553.17,950.33,572Zm-25.47,27.27C938,599.24,945,586.39,945,572s-7.06-27.33-20.16-27.33-20.19,12.9-20.19,27.33S911.77,599.24,924.86,599.24Z"></path><path d="M1001.08,545.37V543h11.23v3.31h-.71Zm11.23,52.25v3.31h-11.23v-2.42l10.52-.89Zm-2.34-27.4c0-9.52,0-18.46-.21-27.27h5.1c-.21,8.74-.21,17.68-.21,27.27v2.1c0,10.86,0,19.8.21,28.61h-5.1c.21-8.74.21-17.68.21-28.61Zm2.34,28h10.18c16.55,0,24.82-10,24.82-26.19,0-17.12-8.37-26.31-23.74-26.31h-11.26V543h12.21c17.36,0,28.1,10.35,28.1,29,0,17.91-11.2,28.93-29.26,28.93h-11.05Z"></path><path d="M1103.25,545.37V543h11.23v3.31h-.71Zm11.23,52.25v3.31h-11.23v-2.42l10.52-.89Zm-2.34-28c0-8.91,0-17.85-.21-26.66h5.1c-.21,8.74-.21,17.68-.21,27.68v1.69c0,10.86,0,19.8.21,28.61h-5.1c.21-8.74.21-17.68.21-26.66Zm28.2-26.66,2.29,2.88h-28.15V543h30.34l.76,14h-3.19Zm-6.68,29.93h-19.18v-2.73h19.18Zm13.33,14-.75,14h-31.76v-2.88H1144l-2.29,2.88,2.06-14Zm-14.91-16.34,1-8.71h2.55v19.31h-2.55l-1-8.88Z"></path><path d="M1198,545.37V543h11.23v3.31h-.71ZM1210,597.62l10.51.89v2.42H1198v-2.42l10.52-.89Zm-3-28c0-8.91,0-17.85-.21-26.66h5.1c-.21,8.84-.21,17.58-.21,29v1.41c0,9.77,0,18.71.21,27.52h-5.1c.21-8.74.21-17.68.21-26.66Zm2.34,1.76H1221c9,0,14.88-5.71,14.88-13.23,0-7.68-4.69-12.45-15.06-12.45h-11.59V543H1221c12.55,0,19.67,5.44,19.67,15.19,0,8.12-6.22,14.49-16.62,15.33l-.3-.73c6.4.75,8.81,3.33,11,9.8l5.59,16.52-1.85-1.23,9.27.68v2.42a25.36,25.36,0,0,1-5.79.6c-4.66,0-6.22-1.27-7.1-4.16l-4.6-14.73c-2-6.61-4.29-8.68-11.83-8.68h-9.14Z"></path><path d="M1302.45,544.75l3.76,1.4-10.48-.78V543H1307l37.32,53.9v4.68h-2.14Zm-6.38,53.76,8.62-.89h1.41l10,.89v2.42h-20Zm7.61-55.56,3,2.68v55.3h-3Zm28.23,0h20v2.42l-8.45.89h-1.41l-10.17-.89Zm9.39,0h3v58.58l-3-3Z"></path><path d="M1466.6,545.37V543h11.22v3.31h-.7Zm11.22,52.25v3.31H1466.6v-2.42l10.52-.89Zm-2.34-27.4c0-9.52,0-18.46-.21-27.27h5.1c-.2,8.74-.2,17.68-.2,27.27v2.1c0,10.86,0,19.8.2,28.61h-5.1c.21-8.74.21-17.68.21-28.61Zm2.34,28H1488c16.56,0,24.82-10,24.82-26.19,0-17.12-8.36-26.31-23.74-26.31h-11.26V543H1490c17.36,0,28.1,10.35,28.1,29,0,17.91-11.2,28.93-29.26,28.93h-11Z"></path><path d="M1568.77,545.37V543H1580v3.31h-.7ZM1580,597.62v3.31h-11.22v-2.42l10.52-.89Zm-2.34-28c0-8.91,0-17.85-.21-26.66h5.1c-.21,8.74-.21,17.68-.21,27.68v1.69c0,10.86,0,19.8.21,28.61h-5.1c.21-8.74.21-17.68.21-26.66Zm28.2-26.66,2.29,2.88H1580V543h30.35l.75,14h-3.18Zm-6.68,29.93H1580v-2.73h19.18Zm13.34,14-.76,14H1580v-2.88h29.57l-2.29,2.88,2-14Zm-14.92-16.34,1-8.71h2.54v19.31h-2.54l-1-8.88Z"></path><path d="M1694.7,587.12c0-6-3-9.2-12.62-13l-3.21-1.29c-9-3.59-13.93-8.53-13.93-16.28,0-9.89,8.14-14.74,17.58-14.74a22.49,22.49,0,0,1,13.92,4.31l-.37,10.67h-3.22l-1.49-11.66,3,1.61v2.37a17.08,17.08,0,0,0-12-4.42c-7.62,0-13.21,3.61-13.21,11,0,6.18,4,9.67,10.57,12.28l3.41,1.35c12.22,4.84,15.79,9.37,15.79,17.2,0,9.79-8.16,15.68-19.33,15.68a31.15,31.15,0,0,1-16.38-4.61l.47-11.33h3.07l1.57,12.07-3.25-1.54v-2.5c5.08,3.77,8.57,5,14.41,5C1688.42,599.24,1694.7,595.2,1694.7,587.12Z"></path><path d="M1750.31,545.37V543h22.45v2.42l-10.52.89h-1.41Zm11.93,52.25,10.52.89v2.42h-22.45v-2.42l10.52-.89Zm-3-28c0-8.91,0-17.85-.2-26.66h5.1c-.21,8.74-.21,17.68-.21,26.66v4.66c0,8.91,0,17.85.21,26.66H1759c.2-8.74.2-17.68.2-26.66Z"></path><path d="M1870.31,596.94c-6.19,3.55-11.48,5.18-18.36,5.18-17,0-28.39-12.46-28.39-30.15s11.68-30.21,28.58-30.21c7.29,0,12.32,1.6,17.34,4.69l.34,12.17h-3.36L1864.67,546l3.24,1.16v3c-4.74-3.79-9.07-5.58-15.34-5.58-14.12,0-23.69,10.49-23.69,27.33s9.2,27.24,23.64,27.24a27.79,27.79,0,0,0,15.35-4.45l-2.24,2.47V592.8c0-6.43-.09-12.89-.26-19.32h5.2c-.17,5.84-.26,11.8-.26,19.32Zm-14.65-21v-2.42h20.83v2.42l-8.23.71h-1.42Z"></path><path d="M1930.68,544.75l3.75,1.4-10.47-.78V543h11.22l37.32,53.9v4.68h-2.14Zm-6.39,53.76,8.62-.89h1.42l10,.89v2.42h-20Zm7.62-55.56,3,2.68v55.3h-3Zm28.22,0h20v2.42l-8.44.89h-1.42l-10.17-.89Zm9.39,0h3v58.58l-3-3Z"></path><path d="M2061.83,587.12c0-6-3-9.2-12.62-13l-3.21-1.29c-9-3.59-13.93-8.53-13.93-16.28,0-9.89,8.14-14.74,17.58-14.74a22.49,22.49,0,0,1,13.92,4.31l-.36,10.67H2060l-1.49-11.66,3,1.61v2.37a17.07,17.07,0,0,0-12-4.42c-7.62,0-13.2,3.61-13.2,11,0,6.18,4,9.67,10.56,12.28l3.41,1.35c12.22,4.84,15.79,9.37,15.79,17.2,0,9.79-8.16,15.68-19.33,15.68a31.15,31.15,0,0,1-16.38-4.61l.47-11.33h3.07l1.57,12.07-3.24-1.54v-2.5c5.07,3.77,8.56,5,14.4,5C2055.55,599.24,2061.83,595.2,2061.83,587.12Z"></path><path d="M2181.6,545.37V543h22.45v2.42l-10.52.89h-1.41Zm11.93,52.25,10.52.89v2.42H2181.6v-2.42l10.52-.89Zm-3.05-28c0-8.91,0-17.85-.21-26.66h5.1c-.21,8.74-.21,17.68-.21,26.66v4.66c0,8.91,0,17.85.21,26.66h-5.1c.21-8.74.21-17.68.21-26.66Z"></path><path d="M2261.77,544.75l3.76,1.4-10.47-.78V543h11.21l37.32,53.9v4.68h-2.14Zm-6.38,53.76,8.62-.89h1.42l10,.89v2.42h-20ZM2263,543l3,2.68v55.3h-3Zm28.23,0h20v2.42l-8.45.89h-1.41l-10.17-.89Zm9.39,0h3v58.58l-3-3Z"></path><path d="M2367.81,544.75l3.75,1.4-10.47-.78V543h11.22l37.32,53.9v4.68h-2.14Zm-6.38,53.76,8.62-.89h1.41l10,.89v2.42h-20ZM2369,543l3,2.68v55.3h-3Zm28.23,0h20v2.42l-8.45.89h-1.41l-10.17-.89Zm9.38,0h3v58.58l-3-3Z"></path><path d="M2518.53,572c0,18.47-11.63,30.15-25.47,30.15s-25.5-11.36-25.5-30.15c0-18.48,11.7-30.21,25.5-30.21S2518.53,553.17,2518.53,572Zm-25.47,27.27c13.1,0,20.16-12.85,20.16-27.27s-7.06-27.33-20.16-27.33-20.19,12.9-20.19,27.33S2480,599.24,2493.06,599.24Z"></path><path d="M2574.41,546.26l-9.91-.89V543h21.59v2.6l-10.47.71ZM2571,543h5L2594,596.49h-1.34L2610,543h3.22l-19.29,58.58h-2.42Zm38.64,3.31-9.51-.71V543h19.71v2.42l-8.78.89Z"></path><path d="M2655.67,598.51l7.93-.84H2665l8.8.84v2.42h-18.15Zm25.47-56.09h3.12L2704,600.93h-4.89l-18-54.47,1.68-.51-17.91,55h-3.12ZM2670.67,578h23.63l1,2.63h-25.62Zm18.17,20.47,10.53-.84h1.41l10.16.84v2.42h-22.1Z"></path><path d="M2754.44,545.83l2.29-2.88-2.09,14.55h-3.18l.79-14.55h46.34l.79,14.55h-3.18L2794.11,543l2.29,2.88Zm21.69,51.79,11.38.89v2.42h-24.17v-2.42l11.37-.89Zm-3.05-28c0-8.91,0-17.85-.21-26.66h5.1c-.21,8.74-.21,17.68-.21,26.66v4.66c0,8.91,0,17.85.21,26.66h-5.1c.21-8.74.21-17.68.21-26.66Z"></path><path d="M2848.61,545.37V543h22.45v2.42l-10.52.89h-1.41Zm11.93,52.25,10.52.89v2.42h-22.45v-2.42l10.52-.89Zm-3-28c0-8.91,0-17.85-.21-26.66h5.1c-.21,8.74-.21,17.68-.21,26.66v4.66c0,8.91,0,17.85.21,26.66h-5.1c.21-8.74.21-17.68.21-26.66Z"></path><path d="M2972.78,572c0,18.47-11.63,30.15-25.47,30.15s-25.5-11.36-25.5-30.15c0-18.48,11.7-30.21,25.5-30.21S2972.78,553.17,2972.78,572Zm-25.47,27.27c13.1,0,20.16-12.85,20.16-27.27s-7.06-27.33-20.16-27.33-20.18,12.9-20.18,27.33S2934.22,599.24,2947.31,599.24Z"></path><path d="M3030.18,544.75l3.76,1.4-10.48-.78V543h11.22l37.32,53.9v4.68h-2.14Zm-6.38,53.76,8.62-.89h1.41l10,.89v2.42h-20Zm7.61-55.56,3,2.68v55.3h-3Zm28.23,0h20v2.42l-8.45.89h-1.41l-10.17-.89Zm9.39,0h3v58.58l-3-3Z"></path></g></g></svg> 